<svg data-v-0dd9719b="" version="1.0" xmlns="http://www.w3.org/2000/svg" xmlns:xlink="http://www.w3.org/1999/xlink" width="100%" height="100%" viewBox="0 0 84 84" preserveAspectRatio="xMidYMid meet" color-interpolation-filters="sRGB" style="margin: auto;"> <rect data-v-0dd9719b="" x="0" y="0" width="100%" height="100%" fill="#fff" fill-opacity="0" class="background"></rect> <!----> <g data-v-0dd9719b="" fill="#0c0c0c" class="icon-text-wrapper icon-svg-group iconsvg" transform="translate(12, 12)"><g fill="#0c0c0c" class="iconsvg-imagesvg icon_container"><rect fill="#0c0c0c" fill-opacity="0" stroke-width="2" x="0" y="0" width="60" height="60" class="image-rect"></rect> <svg viewBox="0 0 60 60" x="0" y="0" width="60" height="60" class="image-svg-svg bn" style="overflow: visible;"><g hollow-target="iconBnFill" mask="url(#79616a12-3be5-445c-98e5-60c96bb79845)"><g><svg viewBox="0 0 100 100" xmlns="http://www.w3.org/2000/svg" style="overflow: visible;" width="60" height="60" x="0" y="0" filtersec="colorsf8264180344" filter="url(#6hmsjVqJzmJc1cgyFYqta)"><g transform="scale(1, 1) skewX(0)"><rect x="537" y="3121" width="100" height="100" rx="30" transform="translate(-537 -3121)" fill="#333" fill-rule="evenodd"></rect></g><defs><filter id="6hmsjVqJzmJc1cgyFYqta"><feColorMatrix type="matrix" values="0 0 0 0 0.046875  0 0 0 0 0.046875  0 0 0 0 0.046875  0 0 0 1 0"></feColorMatrix></filter></defs></svg></g> <g filter="url(#colors3002891585)"><svg xmlns="http://www.w3.org/2000/svg" viewBox="0 0 56.68000030517578 56.68000030517578" width="40" height="40" x="10" y="10" class="image-svg-icon"><g><path d="M44.63 8.5h3.55v48.18h8.5V0H36.13v48.18H22.32A13.84 13.84 0 0 1 8.5 34.36V8.5H12v25.86a10.28 10.28 0 0 0 10.31 10.27h10.28v-8.5H22.31a1.77 1.77 0 0 1-1.77-1.77V0H0v34.36a22.35 22.35 0 0 0 22.32 22.32h22.31z" fill="#333333"></path></g></svg></g></g><mask id="79616a12-3be5-445c-98e5-60c96bb79845"><g fill="white"><svg viewBox="0 0 100 100" xmlns="http://www.w3.org/2000/svg" style="overflow: visible;" width="60" height="60" x="0" y="0" filtersec="colorsf8264180344"><g transform="scale(1, 1) skewX(0)"><rect x="537" y="3121" width="100" height="100" rx="30" transform="translate(-537 -3121)" fill-rule="evenodd"></rect></g><defs></defs></svg></g> <g fill="black"><svg xmlns="http://www.w3.org/2000/svg" viewBox="0 0 56.68000030517578 56.68000030517578" width="40" height="40" x="10" y="10" class="image-svg-icon"><g><path d="M44.63 8.5h3.55v48.18h8.5V0H36.13v48.18H22.32A13.84 13.84 0 0 1 8.5 34.36V8.5H12v25.86a10.28 10.28 0 0 0 10.31 10.27h10.28v-8.5H22.31a1.77 1.77 0 0 1-1.77-1.77V0H0v34.36a22.35 22.35 0 0 0 22.32 22.32h22.31z"></path></g></svg></g></mask></svg> <defs><filter id="colors3002891585"><feColorMatrix type="matrix" values="0 0 0 0 0.046875  0 0 0 0 0.046875  0 0 0 0 0.046875  0 0 0 1 0" class="icon-fecolormatrix"></feColorMatrix></filter> <filter id="colorsf8264180344"><feColorMatrix type="matrix" values="0 0 0 0 0.99609375  0 0 0 0 0.99609375  0 0 0 0 0.99609375  0 0 0 1 0" class="icon-fecolormatrix"></feColorMatrix></filter> <filter id="colorsb8142691546"><feColorMatrix type="matrix" values="0 0 0 0 0  0 0 0 0 0  0 0 0 0 0  0 0 0 1 0" class="icon-fecolormatrix"></feColorMatrix></filter></defs></g> <g transform="translate(30,67)"><g data-gra="path-name" fill-rule="" class="tp-name iconsvg-namesvg"><g transform="scale(1)"><g><path d="" transform="translate(0, 0)"></path></g> <!----> <!----> <!----> <!----> <!----> <!----> <!----></g></g> <!----></g></g><defs v-gra="od"></defs></svg>